<?xml version="1.0" encoding="UTF-8" standalone="no"?>
<!-- Created with Inkscape (http://www.inkscape.org/) -->

<svg
   xmlns:dc="http://purl.org/dc/elements/1.1/"
   xmlns:cc="http://creativecommons.org/ns#"
   xmlns:rdf="http://www.w3.org/1999/02/22-rdf-syntax-ns#"
   xmlns:svg="http://www.w3.org/2000/svg"
   xmlns="http://www.w3.org/2000/svg"
   xmlns:sodipodi="http://sodipodi.sourceforge.net/DTD/sodipodi-0.dtd"
   xmlns:inkscape="http://www.inkscape.org/namespaces/inkscape"
   version="1.1"
   id="svg815"
   width="60"
   height="60"
   viewBox="0 0 60 60"
   sodipodi:docname="whiteKnight.svg"
   inkscape:version="0.92.3 (2405546, 2018-03-11)">
  <metadata
     id="metadata821">
    <rdf:RDF>
      <cc:Work
         rdf:about="">
        <dc:format>image/svg+xml</dc:format>
        <dc:type
           rdf:resource="http://purl.org/dc/dcmitype/StillImage" />
        <dc:title></dc:title>
      </cc:Work>
    </rdf:RDF>
  </metadata>
  <defs
     id="defs819" />
  <sodipodi:namedview
     pagecolor="#ffffff"
     bordercolor="#666666"
     borderopacity="1"
     objecttolerance="10"
     gridtolerance="10"
     guidetolerance="10"
     inkscape:pageopacity="0"
     inkscape:pageshadow="2"
     inkscape:window-width="1920"
     inkscape:window-height="1017"
     id="namedview817"
     showgrid="false"
     inkscape:snap-smooth-nodes="false"
     inkscape:object-nodes="true"
     inkscape:zoom="14.133333"
     inkscape:cx="30"
     inkscape:cy="35.574416"
     inkscape:window-x="1358"
     inkscape:window-y="-8"
     inkscape:window-maximized="1"
     inkscape:current-layer="svg815" />
  <path
     style="fill:#ff2a2a;stroke-width:0.28183964"
     d="m 26.439859,21.108255 c 0,-0.730056 0.304631,-1.350493 1.210836,-2.466097 1.790114,-2.203758 1.867555,-2.446008 0.39661,-1.24068 -0.729084,0.597429 -1.325606,1.189238 -1.325606,1.315131 0,0.757977 -2.865353,0.246093 -3.406535,-0.608563 -0.488679,-0.771741 -0.241917,-2.077406 0.763239,-4.038431 0.561341,-1.095158 1.185564,-2.181438 1.387164,-2.413955 0.2016,-0.232518 0.408167,-0.865619 0.459039,-1.40689 0.10659,-1.1341138 0.819124,-1.4521528 1.623171,-0.7245008 0.449131,0.406458 0.54006,0.409073 0.859058,0.0247 0.488491,-0.588595 1.599866,-0.548622 1.761326,0.06335 0.07782,0.29497 0.642315,0.6428578 1.404381,0.8654998 2.796179,0.816919 4.372781,3.768043 4.652573,8.708808 l 0.164061,2.897096 h -4.974659 -4.974658 z m 8.451844,-1.913385 c -0.01042,-5.487736 -2.398096,-8.146179 -7.042646,-7.841301 -0.542541,0.03561 -0.827904,0.128722 -0.634139,0.206908 0.571533,0.230619 0.426447,1.726706 -0.199962,2.06195 -0.303744,0.162559 -0.702168,0.262142 -0.885386,0.221296 -0.183218,-0.04085 -0.584274,0.344363 -0.891236,0.856021 -0.532027,0.886806 -0.534738,0.94738 -0.058,1.295982 0.275064,0.201132 0.416702,0.500664 0.31475,0.665626 -0.115535,0.18694 0.07411,0.271447 0.503422,0.22432 0.914629,-0.1004 3.499917,-2.288388 3.714599,-3.14375 0.108193,-0.431077 0.373678,-0.677064 0.730731,-0.677064 0.521722,0 0.546621,0.12274 0.357334,1.761498 -0.268923,2.328219 -0.514878,2.909645 -1.838086,4.345156 -0.612717,0.66472 -1.114032,1.338244 -1.114032,1.496719 0,0.180922 1.310896,0.288137 3.522996,0.288137 h 3.522995 l -0.0033,-1.761498 z m 0.759553,-0.546064 c -0.08997,-0.224833 -0.156755,-0.158049 -0.170278,0.170278 -0.01224,0.297106 0.05437,0.463567 0.148028,0.369914 0.09365,-0.09365 0.103665,-0.336739 0.02225,-0.540192 z M 25.505029,17.803287 c -0.08997,-0.224833 -0.156754,-0.158049 -0.170278,0.170278 -0.01224,0.297106 0.05438,0.463567 0.148028,0.369914 0.09365,-0.09365 0.103665,-0.336739 0.02225,-0.540192 z"
     id="path825"
     inkscape:connector-curvature="0" />
</svg>
